<?xml version="1.0" encoding="UTF-8"?>
<svg width="33px" height="28px" viewBox="0 0 33 28" version="1.1" xmlns="http://www.w3.org/2000/svg" xmlns:xlink="http://www.w3.org/1999/xlink">
    <!-- Generator: Sketch 43 (38999) - http://www.bohemiancoding.com/sketch -->
    <title>Group</title>
    <desc>Created with Sketch.</desc>
    <defs>
        <path d="M6.19411765,0 C2.78735294,0 0,2.87030303 0,6.37845118 C0,9.88659933 2.78735294,12.7569024 6.19411765,12.7569024 L21.6794118,12.7569024 C22.5311029,12.7569024 23.2279412,12.0393266 23.2279412,11.1622896 L23.2279412,1.59461279 C23.2279412,0.717575758 22.5311029,0 21.6794118,0 L6.19411765,0 Z M0,0 L23.2279412,0 L23.2279412,12.7569024 L0,12.7569024 L0,0 Z" id="path-1"></path>
        <linearGradient x1="0%" y1="50%" x2="113.465842%" y2="50%" id="linearGradient-3">
            <stop stop-color="#FFFFFF" offset="0%"></stop>
            <stop stop-color="#FF5656" stop-opacity="0.978826993" offset="100%"></stop>
        </linearGradient>
    </defs>
    <g id="icon" stroke="none" stroke-width="1" fill="none" fill-rule="evenodd">
        <g id="Group" transform="translate(1.000000, 1.000000)">
            <g id="Page-1">
                <g id="Group-5" stroke="#000000" stroke-width="2" stroke-linecap="round" stroke-linejoin="round">
                    <path d="M30.9705882,24.0053872 C30.9705882,24.8824242 30.27375,25.6 29.4220588,25.6 L1.54852941,25.6 C0.696838235,25.6 0,24.8824242 0,24.0053872 L0,6.46464646 C0,5.58760943 0.696838235,4.87003367 1.54852941,4.87003367 L29.4220588,4.87003367 C30.27375,4.87003367 30.9705882,5.58760943 30.9705882,6.46464646" id="Stroke-1"></path>
                    <path d="M0,8.98931717 L0,1.68040943 C0,0.803372391 0.696838235,0.085796633 1.54852941,0.085796633 L29.4220588,0.085796633" id="Stroke-3"></path>
                </g>
                <g id="Group-8" transform="translate(7.742647, 8.856566)">
                    <mask id="mask-2" fill="white">
                        <use xlink:href="#path-1"></use>
                    </mask>
                    <g id="Clip-7"></g>
                    <path d="M6.19411765,0 C2.78735294,0 0,2.87030303 0,6.37845118 L0,6.37845118 C0,9.88659933 2.78735294,12.7569024 6.19411765,12.7569024 L6.19411765,12.7569024 L21.6794118,12.7569024 C22.5311029,12.7569024 23.2279412,12.0393266 23.2279412,11.1622896 L23.2279412,11.1622896 L23.2279412,1.59461279 C23.2279412,0.717575758 22.5311029,0 21.6794118,0 L21.6794118,0 L6.19411765,0 Z" id="Fill-6" mask="url(#mask-2)"></path>
                </g>
            </g>
            <path d="M12,15.2774194 C12,12.3128973 14.4088879,9.90967742 17.3740847,9.90967742 L31.0199346,9.90967742 L31.0199346,20.6451613 L17.3740847,20.6451613 C14.4060597,20.6451613 12,18.2359092 12,15.2774194 L12,15.2774194 Z" id="Rectangle-7" fill="url(#linearGradient-3)"></path>
        </g>
    </g>
</svg>