<?xml version="1.0" encoding="UTF-8"?>
<svg width="14px" height="14px" viewBox="0 0 14 14" version="1.1" xmlns="http://www.w3.org/2000/svg" xmlns:xlink="http://www.w3.org/1999/xlink">
    <!-- Generator: Sketch 43 (38999) - http://www.bohemiancoding.com/sketch -->
    <title>Clear</title>
    <desc>Created with Sketch.</desc>
    <defs></defs>
    <g id="icon" stroke="none" stroke-width="1" fill="none" fill-rule="evenodd">
        <path d="M8.06066017,7 L9.8265741,5.23408608 C10.1156893,4.94497092 10.1213203,4.46446609 9.82842712,4.17157288 C9.53349191,3.87663766 9.05983054,3.87950929 8.76591392,4.1734259 L7,5.93933983 L5.23408608,4.1734259 C4.94497092,3.88431075 4.46446609,3.87867966 4.17157288,4.17157288 C3.87663766,4.46650809 3.87950929,4.94016946 4.1734259,5.23408608 L5.93933983,7 L4.1734259,8.76591392 C3.88431075,9.05502908 3.87867966,9.53553391 4.17157288,9.82842712 C4.46650809,10.1233623 4.94016946,10.1204907 5.23408608,9.8265741 L7,8.06066017 L8.76591392,9.8265741 C9.05502908,10.1156893 9.53553391,10.1213203 9.82842712,9.82842712 C10.1233623,9.53349191 10.1204907,9.05983054 9.8265741,8.76591392 L8.06066017,7 Z M7,14 C3.13400675,14 0,10.8659932 0,7 C0,3.13400675 3.13400675,0 7,0 C10.8659932,0 14,3.13400675 14,7 C14,10.8659932 10.8659932,14 7,14 Z" id="Clear" fill="#8F8E94"></path>
    </g>
</svg>