<?xml version="1.0" encoding="UTF-8"?>
<svg width="21px" height="21px" viewBox="0 0 21 21" version="1.1" xmlns="http://www.w3.org/2000/svg" xmlns:xlink="http://www.w3.org/1999/xlink">
    <!-- Generator: Sketch 43 (38999) - http://www.bohemiancoding.com/sketch -->
    <title>Group 4</title>
    <desc>Created with Sketch.</desc>
    <defs>
        <polygon id="path-1" points="5.87277191e-05 0.000947457627 7.9967562 0.000947457627 7.9967562 12.9035807 5.87277191e-05 12.9035807 5.87277191e-05 0.000947457627"></polygon>
    </defs>
    <g id="icon" stroke="none" stroke-width="1" fill="none" fill-rule="evenodd">
        <g id="Group-4">
            <circle id="Oval-Copy" fill="#FFFFFF" cx="10.5" cy="10.5" r="10.5"></circle>
            <g id="Page-1" transform="translate(7.000000, 4.000000)">
                <mask id="mask-2" fill="white">
                    <use xlink:href="#path-1"></use>
                </mask>
                <g id="Clip-2"></g>
                <path d="M7.85852973,5.42108814 C7.78501622,5.36137627 7.69377297,5.32898644 7.59993514,5.32898644 L4.0075027,5.32898644 L6.0180973,0.171291525 C6.03042162,0.14000339 6.02912432,0.104749153 6.01442162,0.0743423729 C5.99907027,0.0434949153 5.97247568,0.0194779661 5.94025946,0.00824067797 C5.8888,-0.0102677966 5.8315027,0.00317288136 5.79366486,0.0430542373 L2.6155027,3.53542712 L0.0976648649,6.30134237 C0.0289081081,6.37581695 -0.00633513513,6.47607119 0.00101621622,6.57808814 C0.00815135135,6.67988475 0.0570162162,6.77441017 0.135502703,6.8378678 C0.207935135,6.8978 0.300259459,6.9317322 0.397124324,6.9317322 L3.76598919,6.9317322 L1.47236757,12.7319356 C1.44988108,12.7903254 1.4740973,12.8564271 1.52858378,12.8857322 C1.58393514,12.9172407 1.65334054,12.9062237 1.69658378,12.8590712 L6.51020541,7.50417288 L7.90112432,5.9567322 C7.96944865,5.88181695 8.00361081,5.78112203 7.99561081,5.67932542 C7.98761081,5.57752881 7.93766486,5.48388475 7.85852973,5.42108814 L63.3466781,11.1204514" id="Fill-1" fill="#9B9B9B" mask="url(#mask-2)"></path>
            </g>
        </g>
    </g>
</svg>