<?xml version="1.0" encoding="UTF-8"?>
<svg width="15px" height="20px" viewBox="0 0 15 20" version="1.1" xmlns="http://www.w3.org/2000/svg" xmlns:xlink="http://www.w3.org/1999/xlink">
    <!-- Generator: Sketch 43 (38999) - http://www.bohemiancoding.com/sketch -->
    <title>Page 1</title>
    <desc>Created with Sketch.</desc>
    <defs></defs>
    <g id="icon" stroke="none" stroke-width="1" fill="none" fill-rule="evenodd">
        <g id="Page-1" fill="#929292">
            <g id="Group-3">
                <path d="M13.0001,0.0001 L2.0001,0.0001 C0.8961,0.0001 0.0001,0.8961 0.0001,2.0001 L0.0001,18.0001 C0.0001,19.1041 0.8961,20.0001 2.0001,20.0001 L13.0001,20.0001 C14.1041,20.0001 15.0001,19.1041 15.0001,18.0001 L15.0001,2.0001 C15.0001,0.8961 14.1041,0.0001 13.0001,0.0001 M13.0001,1.0001 C13.5511,1.0001 14.0001,1.4481 14.0001,2.0001 L14.0001,18.0001 C14.0001,18.5521 13.5511,19.0001 13.0001,19.0001 L2.0001,19.0001 C1.4491,19.0001 1.0001,18.5521 1.0001,18.0001 L1.0001,2.0001 C1.0001,1.4481 1.4491,1.0001 2.0001,1.0001 L13.0001,1.0001" id="Fill-1"></path>
            </g>
            <path d="M8.5001,15.9796 C8.5001,16.5326 8.0521,16.9796 7.5001,16.9796 C6.9481,16.9796 6.5001,16.5326 6.5001,15.9796 C6.5001,15.4266 6.9481,14.9796 7.5001,14.9796 C8.0521,14.9796 8.5001,15.4266 8.5001,15.9796" id="Fill-4"></path>
            <path d="M10.0001,4.7296 L5.0001,4.7296 C4.7241,4.7296 4.5001,4.5056 4.5001,4.2296 C4.5001,3.9536 4.7241,3.7296 5.0001,3.7296 L10.0001,3.7296 C10.2761,3.7296 10.5001,3.9536 10.5001,4.2296 C10.5001,4.5056 10.2761,4.7296 10.0001,4.7296" id="Fill-6"></path>
        </g>
    </g>
</svg>