<?xml version="1.0" encoding="UTF-8"?>
<svg width="21px" height="18px" viewBox="0 0 21 18" version="1.1" xmlns="http://www.w3.org/2000/svg" xmlns:xlink="http://www.w3.org/1999/xlink">
    <!-- Generator: Sketch 43 (38999) - http://www.bohemiancoding.com/sketch -->
    <title>Page 1</title>
    <desc>Created with Sketch.</desc>
    <defs></defs>
    <g id="icon" stroke="none" stroke-width="1" fill="none" fill-rule="evenodd">
        <path d="M8.81074178,11.4573652 C8.60343702,11.3700524 8.34575373,11.4757468 8.22530851,11.6905055 C8.10689001,11.9064897 8.1714556,12.1531099 8.37904989,12.2419544 C8.58924997,12.3347816 8.85909359,12.2281682 8.97953881,12.0088141 C9.09535153,11.7870091 9.0203628,11.5382443 8.81074178,11.4573652 M7.48381761,12.0391438 C6.94470942,11.8007953 6.24983313,12.04619 5.91774018,12.5964135 C5.58043565,13.150926 5.7393886,13.8105202 6.27328521,14.0672503 C6.81586778,14.3285758 7.5356438,14.0807301 7.87294833,13.5124314 C8.2015669,12.9395373 8.02871643,12.2848449 7.48381761,12.0391438 M11.0216065,13.3329041 C10.311385,15.0310604 8.27018594,15.935743 6.53965445,15.3447735 C4.86818745,14.7743303 4.16028223,13.0283818 4.89279765,11.4552206 C5.61054695,9.91269553 7.48092229,9.04079354 9.13501738,9.49543253 C10.8473084,9.96385773 11.7216944,11.6733493 11.0216065,13.3329041 M14.6737605,11.3504454 C14.4493733,8.93632461 11.4477973,7.27339982 7.97167867,7.63704973 C4.49556004,8.00100601 1.85937313,10.2524493 2.08491839,12.6668764 C2.31046365,15.083448 5.31203968,16.7451474 8.7881583,16.3824166 C12.2654351,16.019073 14.8993057,13.7657915 14.6737605,11.3504454 M20.7313445,7.69495187 C20.7301864,7.69495187 20.7301864,7.69740275 20.7301864,7.69740275 C20.5938169,8.14499544 20.1404101,8.38824568 19.7182728,8.24425624 C19.2949773,8.09965409 19.0630623,7.62019991 19.2005899,7.1735263 L19.2005899,7.17230086 C19.619832,5.7991931 19.3531732,4.23032098 18.3733976,3.08116274 C17.3939116,1.93200451 15.9477003,1.49360263 14.6115111,1.79352956 C14.177503,1.89125856 13.7498645,1.5977652 13.6575039,1.13853081 C13.5639851,0.679296424 13.8413566,0.227108326 14.2762333,0.129379326 C16.1541365,-0.293398163 18.1886763,0.322386441 19.5680058,1.94119532 C20.9473352,3.55755332 21.319094,5.76151075 20.7313445,7.69495187 M16.6978772,6.31632962 C16.8383001,5.85586979 16.7502824,5.33076789 16.4216638,4.94536638 C16.0939139,4.55996487 15.6083691,4.41475 15.1616215,4.51462352 C14.787836,4.59979174 14.4204201,4.34643161 14.3407989,3.95183928 C14.2603091,3.55510244 14.4988833,3.16663732 14.8726688,3.08238818 C15.7867206,2.87559485 16.7792356,3.17582814 17.4495017,3.96440006 C18.122084,4.75082747 18.3024623,5.82523374 18.0146677,6.76637319 C17.8976969,7.15146834 17.5076976,7.36193801 17.1434666,7.23816836 C16.7792356,7.11409236 16.5814854,6.70050569 16.6978772,6.31632962 M8.80958366,18 C4.45241981,18 0,15.7663256 0,12.0915314 C0,10.1709574 1.15030979,7.94861836 3.13128627,5.85249982 C5.7758696,3.05389666 8.86112031,1.77974334 10.0212742,3.00732986 C10.5325873,3.54866886 10.5820973,4.48490655 10.2531891,5.60465418 C10.0814968,6.16713206 10.7537896,5.85586979 10.7537896,5.85709523 C12.8905342,4.91013493 14.7565665,4.85437731 15.4387034,5.88558676 C15.8017763,6.43427841 15.767322,7.20385599 15.4323337,8.0972032 C15.2774342,8.50895172 15.4795274,8.5726747 15.776008,8.66580829 C16.9801707,9.0613197 18.3207028,10.0171645 18.3207028,11.7006154 C18.3207028,14.4891087 14.5211772,18 8.80958366,18" id="Page-1" fill="#929292"></path>
    </g>
</svg>