<?xml version="1.0" encoding="UTF-8"?>
<svg width="21px" height="18px" viewBox="0 0 21 18" version="1.1" xmlns="http://www.w3.org/2000/svg" xmlns:xlink="http://www.w3.org/1999/xlink">
    <!-- Generator: Sketch 43 (38999) - http://www.bohemiancoding.com/sketch -->
    <title>Page 1</title>
    <desc>Created with Sketch.</desc>
    <defs>
        <polygon id="path-1" points="0.00381818182 0.63 0.00381818182 13.6430526 14.4145909 13.6430526 14.4145909 0.63 0.00381818182 0.63"></polygon>
    </defs>
    <g id="icon" stroke="none" stroke-width="1" fill="none" fill-rule="evenodd">
        <g id="Page-1">
            <g id="Group-3" transform="translate(0.000000, 0.323053)">
                <mask id="mask-2" fill="white">
                    <use xlink:href="#path-1"></use>
                </mask>
                <g id="Clip-2"></g>
                <path d="M4.83954545,5.44073684 C4.29927273,5.44073684 3.759,5.08642105 3.759,4.55021053 C3.759,4.01305263 4.29927273,3.65873684 4.83954545,3.65873684 C5.37981818,3.65873684 5.73681818,4.01305263 5.73681818,4.55021053 C5.73681818,5.07789474 5.37981818,5.44073684 4.83954545,5.44073684 L4.83954545,5.44073684 Z M9.86140909,3.65873684 C10.4016818,3.65873684 10.7596364,4.01305263 10.7596364,4.55021053 C10.7596364,5.08642105 10.4016818,5.44073684 9.86140909,5.44073684 C9.32113636,5.44073684 8.78086364,5.08642105 8.78086364,4.55021053 C8.7885,4.01305263 9.32877273,3.65873684 9.86140909,3.65873684 L9.86140909,3.65873684 Z M13.7235,5.59042105 C13.9535455,5.59042105 14.1845455,5.60652632 14.4145909,5.63021053 C13.7950909,2.75968421 10.7042727,0.63 7.17531818,0.63 C3.234,0.63 0,3.29589474 0,6.68652632 C0,8.64284211 1.07290909,10.2514737 2.86840909,11.4982105 L2.15345455,13.6430526 L4.66486364,12.3887368 C5.56213636,12.5630526 6.28568182,12.744 7.17531818,12.744 C7.39772727,12.744 7.62109091,12.7364211 7.84254545,12.7127368 C7.70031818,12.2390526 7.62109091,11.7350526 7.62109091,11.2225263 C7.62109091,8.11421053 10.3138636,5.59042105 13.7235,5.59042105 Z" id="Fill-1" fill="#929292" mask="url(#mask-2)"></path>
            </g>
            <path d="M16.1472818,10.5746211 C15.7893273,10.5746211 15.4313727,10.2203053 15.4313727,9.86504211 C15.4313727,9.50977895 15.7893273,9.15546316 16.1472818,9.15546316 C16.6875545,9.15546316 17.0445545,9.50977895 17.0445545,9.86504211 C17.0445545,10.2203053 16.6799182,10.5746211 16.1472818,10.5746211 M12.1973727,10.5746211 C11.8403727,10.5746211 11.4824182,10.2203053 11.4824182,9.86504211 C11.4824182,9.50977895 11.8403727,9.15546316 12.1973727,9.15546316 C12.7376455,9.15546316 13.0956,9.50977895 13.0956,9.86504211 C13.0956,10.2203053 12.7376455,10.5746211 12.1973727,10.5746211 M20.2709182,11.4660947 C20.2709182,8.61925263 17.4025091,6.30009474 14.1761455,6.30009474 C10.7588727,6.30009474 8.07373636,8.61925263 8.07373636,11.4660947 C8.07373636,14.3205158 10.7588727,16.6320947 14.1761455,16.6320947 C14.8920545,16.6320947 15.6146455,16.4502 16.3296,16.2777789 L18.3007364,17.3492526 L17.7595091,15.5672526 C19.1980091,14.4948316 20.2709182,13.0671474 20.2709182,11.4660947" id="Fill-4" fill="#929292"></path>
        </g>
    </g>
</svg>