<?xml version="1.0" encoding="UTF-8"?>
<svg width="21px" height="21px" viewBox="0 0 21 21" version="1.1" xmlns="http://www.w3.org/2000/svg" xmlns:xlink="http://www.w3.org/1999/xlink">
    <!-- Generator: Sketch 43 (38999) - http://www.bohemiancoding.com/sketch -->
    <title>Group 2</title>
    <desc>Created with Sketch.</desc>
    <defs>
        <polygon id="path-1" points="11.9957005 0.0550426724 1.69014074e-05 0.0550426724 1.69014074e-05 9.53623501 11.9957005 9.53623501 11.9957005 0.0550426724"></polygon>
    </defs>
    <g id="icon" stroke="none" stroke-width="1" fill="none" fill-rule="evenodd">
        <g id="Group-2">
            <circle id="Oval" fill="#FFFFFF" cx="10.5" cy="10.5" r="10.5"></circle>
            <g id="Page-1" transform="translate(5.000000, 6.000000)">
                <g id="Group-3" transform="translate(0.000000, 0.112327)">
                    <mask id="mask-2" fill="white">
                        <use xlink:href="#path-1"></use>
                    </mask>
                    <g id="Clip-2"></g>
                    <path d="M3.96424225,9.53623501 L1.16976338,9.5298775 C0.850495775,9.49808994 0.555397183,9.35103064 0.338552113,9.11530078 C0.120185915,8.87773058 1.69014074e-05,8.57006044 1.69014074e-05,8.24900607 L1.69014074e-05,1.34223815 C1.69014074e-05,0.632371712 0.583284507,0.0550092118 1.30058028,0.0550092118 L10.4626648,0.0550092118 C11.1797915,0.0550092118 11.7630592,0.632371712 11.7630592,1.34223815 L11.7630592,4.29931789 C11.7618761,4.33763027 11.7414254,5.0071767 11.9724676,5.44919111 C11.9979887,5.49754166 12.0025521,5.55258433 11.9858197,5.60461555 C11.9692563,5.65664677 11.9330873,5.69897442 11.8840732,5.72406986 C11.8546648,5.73929443 11.8228901,5.74699037 11.7897634,5.74699037 C11.7123549,5.74699037 11.6422141,5.70466272 11.6067211,5.63640312 C11.329707,5.10672196 11.3481296,4.37744837 11.3511718,4.29597183 L11.3511718,1.34207085 C11.3511718,0.857226884 10.9526366,0.462726515 10.4626648,0.462726515 L1.30058028,0.462726515 C0.810608451,0.462726515 0.411904225,0.857226884 0.411904225,1.34207085 L0.411904225,8.24900607 C0.411904225,8.69687608 0.750270423,9.07263852 1.19917183,9.12266211 L3.96458028,9.12835041 L10.4626648,9.12835041 C10.9526366,9.12835041 11.3511718,8.73385004 11.3511718,8.24900607 L11.3462704,7.02033317 C11.3430592,6.97382294 11.3160169,6.73892959 11.0785521,6.43862079 L10.789369,6.06302565 L9.23646761,4.02912362 C9.23173521,4.02293341 8.75714366,3.4111065 8.15477746,3.4111065 C8.12266479,3.4111065 8.09004507,3.41277953 8.05708732,3.4164602 C7.53432676,3.47484893 7.0247493,4.01858353 6.58362254,4.98877337 C6.35207324,5.49787627 6.12846761,5.87715207 5.89962254,6.14717904 C5.67212958,6.41553298 5.4395662,6.57580921 5.18908732,6.63654018 C5.11303099,6.65494351 5.03545352,6.66431248 4.95855211,6.66431248 C4.49562254,6.66431248 4.07139718,6.33355453 3.62249577,5.98389135 L3.55505915,5.93119092 C3.30255211,5.73494456 3.12339718,5.65480644 2.93629859,5.65480644 C2.56311549,5.65480644 2.14514366,5.99694099 1.40452394,6.71567448 C1.36581972,6.75315034 1.31460845,6.77372861 1.26035493,6.77372861 C1.20458028,6.77372861 1.15218592,6.75214653 1.11314366,6.71283033 C1.03370704,6.63252491 1.03505915,6.50303243 1.11618592,6.42423273 C1.7303831,5.8281323 2.13635493,5.4767961 2.5212,5.32806377 C2.66198873,5.273523 2.79567887,5.24692183 2.93021408,5.24692183 C3.21128451,5.24692183 3.49066479,5.36252818 3.80959437,5.61047116 L3.87703099,5.66300429 C4.28486197,5.9808799 4.6367493,6.25542405 4.96328451,6.25542405 C5.00689014,6.25542405 5.04981972,6.25007036 5.09105915,6.24036679 C5.44294648,6.15487498 5.81849577,5.67772695 6.20790423,4.82147042 C6.72018592,3.69468501 7.32779155,3.08536765 8.01415775,3.01075053 C8.06232676,3.00556414 8.1096507,3.00305459 8.15629859,3.00305459 C8.96993239,3.00305459 9.54187606,3.75223723 9.56587606,3.78402479 L11.1175944,5.8165884 L11.4037352,6.18833557 C11.7442986,6.61964259 11.7574817,6.97432485 11.7578197,7.01330644 L11.7630592,8.24816956 C11.7630592,8.9583706 11.1797915,9.53623501 10.4626648,9.53623501 L3.96424225,9.53623501 Z" id="Fill-1" fill="#231815" mask="url(#mask-2)"></path>
                </g>
                <path d="M3.29832676,3.67352119 C2.97669296,3.67352119 2.71522817,3.41470352 2.71522817,3.09649329 C2.71522817,2.77811577 2.97669296,2.5194654 3.29832676,2.5194654 C3.61979155,2.5194654 3.88142535,2.77811577 3.88142535,3.09649329 C3.88142535,3.41470352 3.61979155,3.67352119 3.29832676,3.67352119 M3.29832676,2.08999871 C2.73770704,2.08999871 2.28136901,2.54138209 2.28136901,3.09649329 C2.28136901,3.6514372 2.73770704,4.10298788 3.29832676,4.10298788 C3.85894648,4.10298788 4.31511549,3.6514372 4.31511549,3.09649329 C4.31511549,2.54138209 3.85894648,2.08999871 3.29832676,2.08999871" id="Fill-4" fill="#231815"></path>
            </g>
        </g>
    </g>
</svg>