<?xml version="1.0" encoding="UTF-8"?>
<svg width="15px" height="19px" viewBox="0 0 15 19" version="1.1" xmlns="http://www.w3.org/2000/svg" xmlns:xlink="http://www.w3.org/1999/xlink">
    <!-- Generator: Sketch 43 (38999) - http://www.bohemiancoding.com/sketch -->
    <title>Page 1</title>
    <desc>Created with Sketch.</desc>
    <defs>
        <polygon id="path-1" points="14.9722059 18.5433955 14.9722059 0.203213636 0.000220588235 0.203213636 0.000220588235 18.5433955 14.9722059 18.5433955"></polygon>
    </defs>
    <g id="icon" stroke="none" stroke-width="1" fill="none" fill-rule="evenodd">
        <g id="Page-1">
            <g id="Group-3" transform="translate(0.000000, 0.232750)">
                <mask id="mask-2" fill="white">
                    <use xlink:href="#path-1"></use>
                </mask>
                <g id="Clip-2"></g>
                <path d="M13.85625,10.0404636 C13.85625,12.4841227 12.6099265,13.8370091 10.3396324,15.4584864 L7.52095588,17.2747136 L4.70183824,15.4584864 C2.37286765,13.8413273 1.12875,12.4901682 1.12875,10.0469409 L1.12875,3.87841818 C2.05875,3.72900909 4.17198529,3.21644091 7.48698529,1.46196364 C10.8024265,3.21644091 12.9156618,3.72900909 13.8456618,3.87841818 L13.85625,10.0404636 Z M14.4191912,2.83514545 C14.4191912,2.83514545 12.2327206,2.76346364 7.75742647,0.352622727 L7.48698529,0.203213636 L7.21698529,0.352622727 C2.73948529,2.76346364 0.563161765,2.83514545 0.563161765,2.83514545 L0.000220588235,2.83514545 L0.000220588235,10.0080773 C0.000220588235,13.2138955 1.89330882,14.8293273 4.00875,16.3359409 L7.48698529,18.5433955 L10.9656618,16.3359409 C13.0788971,14.8293273 14.9741912,13.2138955 14.9741912,10.0080773 L14.9741912,2.83514545 L14.4191912,2.83514545 Z" id="Fill-1" fill="#A3A3A3" mask="url(#mask-2)"></path>
            </g>
            <polygon id="Fill-4" fill="#A3A3A3" points="3.24004412 8.00616818 2.03960294 9.18071364 6.52372059 13.5774864 13.2362206 7.00780455 12.0357794 5.83325909 6.52372059 11.2201909"></polygon>
        </g>
    </g>
</svg>